<svg width="22" height="30" viewBox="0 0 22 30" fill="none" xmlns="http://www.w3.org/2000/svg">
<path d="M0.522727 30V0.90909H10.3523C12.625 0.90909 14.4905 1.29735 15.9489 2.07386C17.4072 2.84091 18.4867 3.89678 19.1875 5.24148C19.8883 6.58617 20.2386 8.11553 20.2386 9.82955C20.2386 11.5436 19.8883 13.0634 19.1875 14.3892C18.4867 15.715 17.4119 16.7566 15.9631 17.5142C14.5142 18.2623 12.6629 18.6364 10.4091 18.6364H2.45455V15.4545H10.2955C11.8485 15.4545 13.0985 15.2273 14.0455 14.7727C15.0019 14.3182 15.6932 13.6742 16.1193 12.8409C16.5549 11.9981 16.7727 10.9943 16.7727 9.82955C16.7727 8.66477 16.5549 7.64678 16.1193 6.77557C15.6837 5.90436 14.9877 5.23201 14.0312 4.75852C13.0748 4.27557 11.8106 4.03409 10.2386 4.03409H4.04545V30H0.522727ZM14.2159 16.9318L21.375 30H17.2841L10.2386 16.9318H14.2159Z" fill="white"/>
<path d="M0.522727 30H-0.477273V31H0.522727V30ZM0.522727 0.90909V-0.09091H-0.477273V0.90909H0.522727ZM15.9489 2.07386L15.4789 2.95654L15.4834 2.95891L15.9489 2.07386ZM19.1875 5.24148L18.3007 5.70362L18.3007 5.70362L19.1875 5.24148ZM19.1875 14.3892L18.3034 13.9219L18.3034 13.9219L19.1875 14.3892ZM15.9631 17.5142L16.4219 18.4028L16.4264 18.4004L15.9631 17.5142ZM2.45455 18.6364H1.45455V19.6364H2.45455V18.6364ZM2.45455 15.4545V14.4545H1.45455V15.4545H2.45455ZM14.0455 14.7727L13.6162 13.8695L13.6127 13.8712L14.0455 14.7727ZM16.1193 12.8409L15.231 12.3818L15.229 12.3856L16.1193 12.8409ZM14.0312 4.75852L13.5805 5.6512L13.5876 5.65472L14.0312 4.75852ZM4.04545 4.03409V3.03409H3.04545V4.03409H4.04545ZM4.04545 30V31H5.04545V30H4.04545ZM14.2159 16.9318L15.0929 16.4514L14.8083 15.9318H14.2159V16.9318ZM21.375 30V31H23.0631L22.252 29.5195L21.375 30ZM17.2841 30L16.4039 30.4746L16.6872 31H17.2841V30ZM10.2386 16.9318V15.9318H8.56343L9.35841 17.4064L10.2386 16.9318ZM1.52273 30V0.90909H-0.477273V30H1.52273ZM0.522727 1.90909H10.3523V-0.09091H0.522727V1.90909ZM10.3523 1.90909C12.5196 1.90909 14.2093 2.28052 15.4789 2.95653L16.4189 1.19119C14.7718 0.31418 12.7304 -0.09091 10.3523 -0.09091V1.90909ZM15.4834 2.95891C16.7779 3.63978 17.7022 4.55525 18.3007 5.70362L20.0743 4.77934C19.2712 3.23831 18.0365 2.04203 16.4144 1.18882L15.4834 2.95891ZM18.3007 5.70362C18.9179 6.88793 19.2386 8.25524 19.2386 9.82955H21.2386C21.2386 7.97582 20.8586 6.28442 20.0743 4.77934L18.3007 5.70362ZM19.2386 9.82955C19.2386 11.4042 18.9178 12.7596 18.3034 13.9219L20.0716 14.8565C20.8587 13.3673 21.2386 11.683 21.2386 9.82955H19.2386ZM18.3034 13.9219C17.7058 15.0524 16.7861 15.9554 15.4997 16.628L16.4264 18.4004C18.0377 17.5579 19.2677 16.3775 20.0716 14.8565L18.3034 13.9219ZM15.5043 16.6257C14.2409 17.278 12.561 17.6364 10.4091 17.6364V19.6364C12.7648 19.6364 14.7875 19.2466 16.4219 18.4027L15.5043 16.6257ZM10.4091 17.6364H2.45455V19.6364H10.4091V17.6364ZM3.45455 18.6364V15.4545H1.45455V18.6364H3.45455ZM2.45455 16.4545H10.2955V14.4545H2.45455V16.4545ZM10.2955 16.4545C11.9325 16.4545 13.3473 16.2171 14.4782 15.6742L13.6127 13.8712C12.8497 14.2375 11.7645 14.4545 10.2955 14.4545V16.4545ZM14.4747 15.6759C15.6025 15.1399 16.4703 14.3509 17.0097 13.2962L15.229 12.3856C14.9161 12.9976 14.4013 13.4964 13.6162 13.8695L14.4747 15.6759ZM17.0077 13.3001C17.5315 12.2866 17.7727 11.1183 17.7727 9.82955H15.7727C15.7727 10.8704 15.5784 11.7096 15.231 12.3818L17.0077 13.3001ZM17.7727 9.82955C17.7727 8.53965 17.5311 7.36306 17.0137 6.32835L15.2249 7.22278C15.5787 7.9305 15.7727 8.7899 15.7727 9.82955H17.7727ZM17.0137 6.32835C16.4714 5.24358 15.6067 4.42264 14.4749 3.86233L13.5876 5.65472C14.3686 6.04138 14.8961 6.56514 15.2249 7.22278L17.0137 6.32835ZM14.482 3.86587C13.3359 3.28714 11.8996 3.03409 10.2386 3.03409V5.03409C11.7216 5.03409 12.8137 5.26399 13.5805 5.65117L14.482 3.86587ZM10.2386 3.03409H4.04545V5.03409H10.2386V3.03409ZM3.04545 4.03409V30H5.04545V4.03409H3.04545ZM4.04545 29H0.522727V31H4.04545V29ZM13.3389 17.4123L20.498 30.4805L22.252 29.5195L15.0929 16.4514L13.3389 17.4123ZM21.375 29H17.2841V31H21.375V29ZM18.1643 29.5254L11.1189 16.4573L9.35841 17.4064L16.4039 30.4746L18.1643 29.5254ZM10.2386 17.9318H14.2159V15.9318H10.2386V17.9318Z" fill="#EB6F15" fill-opacity="0.89"/>
</svg>
